<svg id="Layer_1" data-name="Layer 1" xmlns="http://www.w3.org/2000/svg" width="285.7686" height="53.5927" viewBox="0 0 285.7686 53.5927"><defs><style>.cls-1{fill:#c15050;}.cls-2{fill:#f1605e;}.cls-3{fill:#f26e6f;}.cls-4{fill:#525b6a;}</style></defs><g id="Group_15" data-name="Group 15"><path id="Path_14" data-name="Path 14" class="cls-1" d="M0,37.4356,32.0987,21.8231,64.3109,37.7307l-32.224,15.862"/><path id="Path_15" data-name="Path 15" class="cls-2" d="M.0568,26.3332,32.1555,10.7188,64.3566,26.6265,32.1326,42.4884"/><path id="Path_16" data-name="Path 16" class="cls-3" d="M.1025,15.6125,32.2018,0,64.4029,15.9076,32.1789,31.77"/><path id="Path_17" data-name="Path 17" class="cls-4" d="M97.6136,5.4159v9.0834h8.845v6.8125H97.5345v13.864c0,3.0655,1.6671,4.5417,4.1441,4.5417a8.9466,8.9466,0,0,0,3.8379-.9539l2.1912,6.8126a17.9047,17.9047,0,0,1-6.5854,1.34c-6.96.2272-11.5017-3.77-11.4678-11.7746l.0679-13.864H83.7273v-6.81h5.984V6.1994Z"/><path id="Path_18" data-name="Path 18" class="cls-4" d="M137.7972,14.6475h7.6189l-.1475,32.0875h-7.4831l-.3748-4.6923c-1.8392,3.77-6.8125,5.5635-10.4342,5.68-9.5039,0-16.51-5.87-16.4528-17.1338,0-11.0591,7.4256-16.8159,16.7936-16.714,4.3034,0,8.3906,2.0554,10.2188,5.2573ZM118.4945,30.5434c0,6.12,4.19,9.7872,9.4581,9.81,12.49,0,12.58-19.4047.0908-19.4615-5.3141,0-9.5607,3.5538-9.5829,9.6742Z"/><path id="Path_19" data-name="Path 19" class="cls-4" d="M160.0408,1.34l-.2044,45.4971h-7.8689L152.1718,1.34Z"/><path id="Path_20" data-name="Path 20" class="cls-4" d="M173.6319,33.69c.5,3.9626,3.94,6.8125,9.5378,6.8125,2.93,0,6.8125-1.1354,8.6067-2.9518l5.0529,5.0628c-3.4063,3.5087-8.9475,5.1665-13.83,5.1436-11.0591,0-17.5994-6.9033-17.5537-17.1906,0-9.765,6.7107-16.759,17.1227-16.714,10.743,0,17.4178,6.7107,16.1231,19.927Zm17.4728-6.4946c-.5-4.1669-3.7471-6.2673-8.3-6.29-4.3034,0-7.8233,2.0437-9.0143,6.2112Z"/><path id="Path_21" data-name="Path 21" class="cls-4" d="M225.3285,15.0476h9.5038v.3179L224.227,30.8626,235.34,46.9975v.1586h-9.4982L218.9271,36.38l-6.96,10.6843h-9.5063v-.1932l11.2067-16.0663L203.1986,15.2038v-.2612h9.5038l6.2562,10.9Z"/><path id="Path_22" data-name="Path 22" class="cls-4" d="M247.56,6.0976c0,6.1883-9.4014,6.1426-9.3785,0S247.5831-.08,247.56,6.0976Zm-8.6975,8.879-.1476,32.1783h7.948l.1475-32.2123Z"/><path id="Path_23" data-name="Path 23" class="cls-4" d="M285.7683,31.3948c0,9.2427-6.3927,16.7023-16.8048,16.6455S252.352,40.4782,252.386,31.2584s6.4606-16.7023,16.6794-16.6572S285.8251,22.1775,285.7683,31.3948Zm-25.4337-.1364c0,4.8825,2.8839,9.4464,8.6746,9.47s8.7432-4.5417,8.7673-9.39-3.3384-9.526-8.6747-9.5489c-5.7357,0-8.745,4.6782-8.7679,9.47Z"/></g></svg>